<svg xmlns="http://www.w3.org/2000/svg" fill="none" version="1.1" viewBox="0 -5 735 325"><defs><marker id="arrow" fill="#000" markerHeight="4" markerWidth="6" orient="auto" refX="1" refY="2" viewBox="0 0 6 4"><path d="M0 0v4l6 -2z"/></marker><style>path.myJob,rect{stroke:#000}path.register{marker-end:url(#arrow);stroke:#000;stroke-width:3}path.myJob{marker-end:url(#coreArrow);stroke-width:.5;fill:#def}rect{stroke-width:2px;fill:#bda}text{fill:#000;font-size:14px;font-family:sans-serif}[role=heading]{font-size:1.5em;font-weight:700}.myRole{font-style:italic}#background{width:100%;height:100%;stroke:none;fill:#fff}</style></defs><rect id="background" y="-5"/><rect width="120" height="90" x="15" rx="10"/><text x="41" y="45" role="heading">Issuer</text><text x="40" y="60" class="myRole">Issues VCs</text><path d="m136 35h130v-3l9 13 -9 13v-3h-130z" class="myJob"/><text x="145" y="50">Issue Credentials</text><path d="m75 90v160h55" class="register"/><text x="85" y="150">Verify Identifiers <tspan x="85" y="165">and use Schemas</tspan></text><rect width="130" height="90" x="275" rx="10"/><text x="305" y="45" role="heading">Holder</text><text x="290" y="60" class="myRole">Acquires, stores,</text><text x="300" y="75" class="myRole">presents VCs</text><path d="m406 35h145v-3l9 13 -9 13v-3h-145z" class="myJob"/><text x="415" y="50">Send Presentation</text><path d="m340 90v90" class="register"/><text x="350" y="150">Register Identifiers <tspan x="350" y="165">and use Schemas</tspan></text><rect width="130" height="90" x="560" rx="10"/><text x="582" y="45" role="heading">Verifier</text><text x="585" y="60" class="myRole">Verifies VCs</text><path d="m640 90v160h-70" class="register"/><text x="630" y="150" text-anchor="end">Verify Identifiers<tspan x="630" y="165">and Schemas</tspan></text><rect width="400" height="90" x="150" y="200" rx="10"/><text x="210" y="245" role="heading">Verifiable Data Registry</text><text x="235" y="260" class="myRole">Maintains identifiers and schemas</text></svg>