<svg xmlns="http://www.w3.org/2000/svg" fill="none" version="1.1" viewBox="0 0 1160 1135"><style>path,rect{stroke:#000;stroke-width:1px}text{fill:#000;font-size:24px;font-family:sans-serif}[role=heading]{font-size:1.5em;font-weight:700}#background{fill:#fff;width:100%;height:100%;stroke:none}</style><defs><symbol id="vc-metadata"><rect width="270" height="175" fill="#cef"/><text x="10" y="25">Context</text><text x="10" y="50">Type</text><text x="10" y="75">ID</text><text x="10" y="100">Issuer</text><text x="10" y="125">Issue Date</text><text x="10" y="150">Expiration Date</text><text x="20" y="170">...</text><rect width="270" height="125" y="325" fill="#def"/><text x="10" y="350">Proof:</text><text x="20" y="375">Signature</text><text x="20" y="400">Proof of Correctness</text><text x="20" y="425">Attributes</text><text x="30" y="445">...</text></symbol><symbol id="derived-vc-metadata"><rect width="320" height="330" fill="#bda" rx="20"/><rect width="280" height="130" x="20" y="45" fill="#cef"/><text x="30" y="70">Context</text><text x="30" y="95">Type</text><text x="30" y="120">ID</text><text x="30" y="145">Issuer</text><text x="30" y="170">Issue Date</text><rect width="280" height="60" x="20" y="180" fill="#def"/><rect width="280" height="60" x="20" y="250" fill="#def"/><text x="30" y="275">Proof:</text><text x="40" y="300">Knowledge of Signature</text></symbol></defs><rect id="background"/><g><rect width="310" height="510" x="60" y="60" fill="#bda" rx="20"/><text x="90" y="95" role="heading">Verifiable Credential 1</text><use x="80" y="115" href="#vc-metadata"/><rect width="270" height="125" x="80" y="300" fill="#def"/><text x="90" y="325">Credential Subject:</text><text x="100" y="350">Given Name</text><text x="100" y="375">Family Name</text><text x="100" y="400">Birth Date</text><text x="110" y="420">...</text></g><g><rect width="310" height="510" x="60" y="620" fill="#bda" rx="20"/><text x="90" y="655" role="heading">Verifiable Credential 2</text><use x="80" y="675" href="#vc-metadata"/><rect width="270" height="125" x="80" y="860" fill="#def"/><text x="90" y="885">Credential Subject:</text><text x="100" y="910">University</text><text x="110" y="935">Department</text><text x="120" y="960">Degree Awarded</text><text x="130" y="980">...</text></g><g><rect width="420" height="1000" x="640" y="85" fill="#f99" rx="15"/><text x="780" y="115" role="heading">Presentation</text><g><title>Presentation Metadata block</title><rect width="380" height="100" x="660" y="130" fill="#fda"/><text x="670" y="155">Context</text><text x="670" y="180">Type</text><text x="670" y="205">ID</text><text x="680" y="225">...</text></g><rect width="380" height="750" x="660" y="240" fill="#fda"/><text x="700" y="270" role="heading">Verifiable Credential</text><g><use x="685" y="285" href="#derived-vc-metadata"/><text x="700" y="320" role="heading">Derived Credential 1</text><text x="715" y="490">Credential Subject:</text><text x="725" y="515">ageOver18</text></g><g><use x="685" y="630" href="#derived-vc-metadata"/><text x="700" y="665" role="heading">Derived Credential 2</text><text x="715" y="835">Credential Subject:</text><text x="725" y="860">degree</text></g><g><rect width="380" height="60" x="660" y="1000" fill="#fda"/><text x="670" y="1025">Proof:</text><text x="680" y="1050">Common Link Secret</text></g></g><g><title>Derived credential information is a subset from the credentials</title><path d="m370 90l315 220"/><path stroke-dasharray="4 3" d="m200 390l520 115"/><path d="m370 550l315 50"/><path d="m370 640l315 30"/><path stroke-dasharray="4 3" d="m295 955l430 -100"/><path d="m370 1115l315 -170"/></g></svg>