<svg xmlns="http://www.w3.org/2000/svg" fill="none" version="1.1" viewBox="0 0 960 720"><defs><marker id="arrow" fill="#000" markerHeight="4" markerWidth="6" orient="auto" refX="1" refY="2" viewBox="0 0 6 4"><path d="M0 0v4l6 -2z"/></marker><symbol id="gone" viewBox="-40 -40 960 720"><g transform="rotate(-45)"><circle r="25" fill="red"/><circle r="15" fill="#fff"/><rect width="30" height="10" x="-15" y="-5" fill="red"/><rect width="34" height="9" x="-17" y="-4.5" fill="red" class="none"/></g></symbol><style>path.link{stroke:#000;stroke-width:4;marker-end:url(#arrow)}circle,rect{stroke:#000;stroke-width:1px}rect.none{stroke:none}text{fill:#000;font-size:14px;font-family:sans-serif}text[aria-level=&apos;1&apos;]{font-size:2em;font-weight:700;font-style:italic}text[aria-level=&apos;2&apos;]{font-size:1.5em;font-weight:700}#background{fill:#fff;width:100%;height:100%;stroke:none}</style></defs><rect id="background"/><text x="225" y="35" aria-level="1" role="heading">Life of a single Verifiable Credential</text><rect width="115" height="85" x="20" y="300" fill="#dfd"/><text x="40" y="345" aria-level="2" role="heading">Issuer</text><path d="m140 320l245 -60" class="link"/><text x="200" y="270" aria-level="2" role="heading">Issue</text><text x="190" y="285">exactly once</text><path stroke-dasharray="15 3" d="m70 390l320 210" class="link"/><text x="140" y="510" aria-level="2" role="heading">Revoke</text><text x="150" y="525">up to once</text><rect width="115" height="85" x="450" y="220" fill="#def"/><rect width="115" height="85" x="430" y="200" fill="#def"/><rect width="115" height="85" x="410" y="180" fill="#def"/><text x="425" y="240" aria-level="2" role="heading">Holders</text><path stroke-dasharray="15 3" d="m405 210l-175 -80" class="link"/><text x="270" y="120" aria-level="2" role="heading">Delete</text><text x="250" y="135">up to once per Holder</text><use x="140" y="80" href="#gone"/><path d="m430 175c100 -100 120 -100 125 10" class="link"/><text x="550" y="120" aria-level="2" role="heading">Transfer</text><text x="560" y="135">repeatable</text><path d="m550 215c30 0 30 5 145 40" class="link"/><text x="610" y="210" aria-level="2" role="heading">Present</text><text x="620" y="225">repeatable</text><rect width="115" height="85" x="755" y="285" fill="#fe9"/><rect width="115" height="85" x="735" y="265" fill="#fe9"/><rect width="115" height="85" x="715" y="245" fill="#fe9"/><text x="720" y="300" aria-level="2" role="heading">Verifiers</text><path d="m855 275c30 -10 45 -40 50 100c-10 200 -200 220 -335 225" class="link"/><text x="740" y="620" aria-level="2" role="heading">Verify</text><text x="740" y="635">repeatable</text><path d="m710 318l-550 20" class="link"/><text x="390" y="370" aria-level="2" role="heading">Check Status</text><text x="380" y="385" font-weight="bold">Does not preserve privacy</text><text x="430" y="400">repeatable</text><path d="m730 345c-200 30 -240 140 -250 195" class="link"/><text x="540" y="480" aria-level="2" role="heading">Check Status</text><text x="540" y="495" font-weight="bold">MAY preserve privacy</text><text x="580" y="510">repeatable</text><rect width="135" height="85" x="410" y="570" fill="#fcc"/><text x="430" y="620" aria-level="2" role="heading">Registry</text></svg>